<?xml version="1.0" standalone="no"?>
<!DOCTYPE svg PUBLIC "-//W3C//DTD SVG 20010904//EN"
 "http://www.w3.org/TR/2001/REC-SVG-20010904/DTD/svg10.dtd">
<svg version="1.0" xmlns="http://www.w3.org/2000/svg"
 width="512.000000pt" height="512.000000pt" viewBox="0 0 512.000000 512.000000"
 preserveAspectRatio="xMidYMid meet">
<metadata>
Created by potrace 1.16, written by Peter Selinger 2001-2019
</metadata>
<g transform="translate(0.000000,512.000000) scale(0.100000,-0.100000)"
fill="#000000" stroke="none">
<path d="M3255 5114 c-576 -87 -1033 -410 -1283 -910 -106 -212 -161 -421
-169 -649 l-5 -140 27 -27 c39 -39 111 -40 148 -2 27 27 31 46 42 215 10 163
79 386 171 556 97 178 264 367 432 486 168 121 399 216 607 252 120 21 347 21
472 0 130 -22 316 -84 431 -145 136 -72 243 -151 357 -265 202 -202 319 -413
393 -705 25 -98 27 -120 27 -320 0 -200 -2 -222 -27 -320 -74 -292 -191 -503
-393 -705 -259 -258 -568 -399 -938 -425 -160 -12 -186 -27 -187 -111 0 -37 5
-52 28 -74 l27 -28 145 6 c662 27 1262 483 1476 1122 68 205 78 273 78 535 0
206 -2 247 -22 333 -149 666 -632 1151 -1294 1298 -74 17 -136 21 -303 24
-115 2 -223 1 -240 -1z"/>
<path d="M1163 4875 c-34 -14 -63 -59 -63 -97 0 -41 36 -86 80 -99 22 -7 40
-15 40 -19 0 -3 -37 -32 -82 -63 -245 -166 -467 -389 -637 -637 -101 -147
-161 -260 -161 -302 0 -56 43 -101 96 -101 60 0 77 15 130 105 172 300 420
576 672 747 l57 38 0 -48 c0 -67 36 -104 100 -104 69 0 85 24 150 214 82 238
80 242 -145 319 -177 60 -197 64 -237 47z"/>
<path d="M3286 4739 c-212 -29 -417 -113 -596 -242 -93 -68 -232 -216 -304
-325 -114 -171 -181 -354 -207 -565 -11 -90 -7 -296 7 -346 6 -21 5 -23 -12
-17 -46 19 -214 56 -300 67 -142 18 -424 7 -553 -21 -653 -139 -1152 -640
-1293 -1296 -20 -96 -23 -136 -23 -334 0 -198 3 -238 23 -334 141 -659 632
-1149 1298 -1298 86 -19 129 -22 334 -22 206 0 247 2 333 22 666 149 1152 634
1298 1294 26 120 37 414 20 551 -11 86 -48 255 -66 300 -7 16 -3 17 36 10 69
-12 316 -9 399 6 108 19 252 67 354 117 370 184 622 522 697 934 20 109 17
364 -5 469 -111 524 -489 903 -1011 1016 -86 19 -336 27 -429 14z m437 -233
c679 -174 1017 -940 686 -1555 -129 -240 -339 -419 -599 -509 -125 -43 -210
-57 -350 -57 -128 0 -302 26 -321 49 -5 6 -28 43 -51 81 -134 227 -341 435
-572 573 -37 23 -72 42 -77 44 -4 2 -15 29 -23 62 -68 260 -34 534 95 774 160
300 456 508 795 562 103 16 307 4 417 -24z m-1828 -1412 c489 -75 928 -429
1116 -899 17 -44 45 -132 62 -195 30 -111 31 -122 31 -335 1 -206 -1 -227 -26
-325 -74 -293 -191 -503 -393 -705 -253 -253 -575 -401 -918 -423 -432 -28
-832 121 -1133 422 -191 192 -315 411 -387 686 -26 100 -30 138 -34 292 -6
211 9 321 68 502 72 219 186 402 354 571 337 337 785 482 1260 409z"/>
<path d="M3376 4175 c-181 -50 -333 -186 -422 -378 l-39 -85 -72 -4 c-64 -3
-76 -7 -100 -31 -22 -22 -28 -37 -28 -73 0 -39 5 -50 33 -75 26 -24 41 -29 82
-29 l50 0 0 -45 0 -45 -50 0 c-41 0 -56 -5 -82 -29 -28 -25 -33 -36 -33 -75 0
-36 6 -51 28 -73 24 -25 36 -28 107 -31 44 -2 80 -9 80 -14 0 -22 73 -154 116
-210 80 -104 209 -190 334 -223 84 -22 234 -19 316 6 137 42 184 81 184 151 0
30 -7 46 -29 69 -39 38 -92 39 -164 2 -40 -20 -71 -27 -134 -31 -99 -5 -163
12 -243 67 -50 34 -150 149 -150 172 0 5 65 9 155 9 204 0 235 15 235 110 0
33 -6 48 -29 71 l-29 29 -201 0 -201 0 0 45 0 45 250 0 250 0 32 29 c28 25 33
36 33 75 0 36 -6 51 -28 73 l-27 28 -225 3 c-124 2 -225 7 -225 11 0 20 85
134 123 165 78 64 143 89 238 94 76 4 92 1 150 -23 35 -15 85 -30 111 -32 43
-4 51 -2 78 25 39 40 42 97 5 140 -69 82 -327 129 -479 87z"/>
<path d="M1486 2939 c-211 -29 -417 -113 -596 -242 -85 -62 -239 -223 -298
-312 -99 -150 -163 -305 -199 -483 -21 -107 -24 -353 -4 -462 30 -168 120
-395 168 -427 15 -10 44 -17 67 -17 31 1 46 8 68 33 36 40 37 85 2 154 -199
391 -125 885 182 1216 127 137 329 257 519 308 89 23 118 26 265 26 146 0 176
-3 263 -26 385 -103 681 -398 784 -784 23 -87 26 -117 26 -263 0 -147 -3 -176
-26 -265 -164 -614 -804 -957 -1402 -752 -38 13 -93 36 -122 51 -67 33 -112
34 -151 1 -36 -30 -47 -75 -28 -120 12 -28 30 -42 93 -73 177 -89 346 -127
563 -126 366 0 656 119 910 374 189 189 301 395 357 660 13 62 18 129 18 250
0 235 -34 382 -136 586 -173 347 -501 596 -894 679 -95 20 -332 28 -429 14z"/>
<path d="M1608 2544 c-35 -19 -48 -43 -48 -91 0 -38 -1 -39 -56 -56 -114 -35
-223 -129 -272 -235 -24 -51 -27 -68 -27 -172 0 -105 2 -120 27 -170 54 -111
162 -203 275 -236 l53 -15 0 -215 c0 -118 -2 -214 -5 -214 -15 0 -63 31 -86
57 -37 40 -56 80 -64 140 -5 41 -13 58 -37 78 -43 37 -100 35 -140 -5 -30 -30
-30 -33 -26 -110 4 -62 11 -92 36 -143 53 -106 185 -212 292 -233 29 -6 30 -9
30 -56 0 -41 5 -54 29 -79 23 -23 38 -29 71 -29 33 0 48 6 71 29 24 25 29 38
29 79 0 47 1 50 30 56 108 21 239 127 292 234 31 64 33 72 33 182 0 107 -2
119 -28 170 -60 116 -154 198 -271 234 l-56 18 0 214 c0 124 4 214 9 214 21 0
97 -68 117 -104 12 -22 25 -63 29 -92 5 -43 12 -59 36 -79 42 -35 97 -34 139
2 32 27 32 27 28 107 -3 59 -11 96 -30 138 -49 105 -158 200 -272 235 -55 17
-56 18 -56 56 0 49 -13 73 -50 92 -36 19 -67 19 -102 -1z m-48 -555 l0 -200
-42 23 c-25 13 -57 44 -75 72 -27 40 -33 58 -33 103 0 61 23 114 67 154 28 27
62 48 76 49 4 0 7 -90 7 -201z m314 -538 c38 -52 47 -140 21 -192 -28 -55 -98
-119 -130 -119 -3 0 -5 90 -5 201 l0 201 43 -25 c23 -13 55 -43 71 -66z"/>
<path d="M776 915 c-42 -22 -55 -44 -56 -93 0 -80 77 -126 154 -91 25 12 56
63 56 94 0 29 -30 74 -60 90 -37 19 -57 19 -94 0z"/>
<path d="M4617 1620 c-14 -11 -50 -67 -81 -125 -149 -281 -371 -544 -614 -727
-143 -108 -141 -107 -135 -54 5 38 1 48 -25 77 -26 29 -37 34 -75 34 -72 0
-88 -22 -153 -217 -36 -110 -54 -177 -50 -193 13 -51 47 -71 216 -129 146 -49
170 -54 201 -46 47 13 70 39 75 87 7 54 -23 98 -76 114 -22 7 -40 15 -40 18 0
3 21 19 48 36 172 108 429 341 562 510 148 188 310 464 310 529 0 48 -13 72
-50 91 -40 21 -82 19 -113 -5z"/>
</g>
</svg>
